<?xml version="1.0" encoding="UTF-8" standalone="no"?>
<!DOCTYPE svg PUBLIC "-//W3C//DTD SVG 1.1//EN"
 "http://www.w3.org/Graphics/SVG/1.1/DTD/svg11.dtd">
<!-- Generated by graphviz version 2.43.0 (0)
 -->
<!-- Title: G Pages: 1 -->
<svg width="1965pt" height="368pt"
 viewBox="0.00 0.00 1965.00 368.00" xmlns="http://www.w3.org/2000/svg" xmlns:xlink="http://www.w3.org/1999/xlink">
<g id="graph0" class="graph" transform="scale(1 1) rotate(0) translate(4 364)">
<title>G</title>
<polygon fill="white" stroke="transparent" points="-4,4 -4,-364 1961,-364 1961,4 -4,4"/>
<!-- google_artifact_registry_repository.docker_repo -->
<g id="node1" class="node">
<title>google_artifact_registry_repository.docker_repo</title>
<polygon fill="none" stroke="black" points="1957,-36 1615,-36 1615,0 1957,0 1957,-36"/>
<text text-anchor="middle" x="1786" y="-14.3" font-family="sans-serif" font-size="14.00">google_artifact_registry_repository.docker_repo</text>
</g>
<!-- google_cloud_run_service.default -->
<g id="node2" class="node">
<title>google_cloud_run_service.default</title>
<polygon fill="none" stroke="black" points="1094,-63 846,-63 846,-27 1094,-27 1094,-63"/>
<text text-anchor="middle" x="970" y="-41.3" font-family="sans-serif" font-size="14.00">google_cloud_run_service.default</text>
</g>
<!-- google_vpc_access_connector.vpc_connector -->
<g id="node14" class="node">
<title>google_vpc_access_connector.vpc_connector</title>
<polygon fill="none" stroke="black" points="690,-63 363,-63 363,-27 690,-27 690,-63"/>
<text text-anchor="middle" x="526.5" y="-41.3" font-family="sans-serif" font-size="14.00">google_vpc_access_connector.vpc_connector</text>
</g>
<!-- google_cloud_run_service.default&#45;&gt;google_vpc_access_connector.vpc_connector -->
<g id="edge1" class="edge">
<title>google_cloud_run_service.default&#45;&gt;google_vpc_access_connector.vpc_connector</title>
<path fill="none" stroke="black" d="M845.72,-45C800.61,-45 748.71,-45 700.08,-45"/>
<polygon fill="black" stroke="black" points="700.08,-41.5 690.08,-45 700.08,-48.5 700.08,-41.5"/>
</g>
<!-- google_cloud_run_service_iam_member.invoker -->
<g id="node3" class="node">
<title>google_cloud_run_service_iam_member.invoker</title>
<polygon fill="none" stroke="black" points="1579,-63 1233,-63 1233,-27 1579,-27 1579,-63"/>
<text text-anchor="middle" x="1406" y="-41.3" font-family="sans-serif" font-size="14.00">google_cloud_run_service_iam_member.invoker</text>
</g>
<!-- google_cloud_run_service_iam_member.invoker&#45;&gt;google_cloud_run_service.default -->
<g id="edge2" class="edge">
<title>google_cloud_run_service_iam_member.invoker&#45;&gt;google_cloud_run_service.default</title>
<path fill="none" stroke="black" d="M1232.85,-45C1190.09,-45 1144.9,-45 1104.32,-45"/>
<polygon fill="black" stroke="black" points="1104.1,-41.5 1094.1,-45 1104.1,-48.5 1104.1,-41.5"/>
</g>
<!-- google_cloudbuild_trigger.github_trigger -->
<g id="node4" class="node">
<title>google_cloudbuild_trigger.github_trigger</title>
<polygon fill="none" stroke="black" points="1935,-198 1637,-198 1637,-162 1935,-162 1935,-198"/>
<text text-anchor="middle" x="1786" y="-176.3" font-family="sans-serif" font-size="14.00">google_cloudbuild_trigger.github_trigger</text>
</g>
<!-- google_compute_global_address.private_ip_range -->
<g id="node5" class="node">
<title>google_compute_global_address.private_ip_range</title>
<polygon fill="none" stroke="black" points="707,-117 346,-117 346,-81 707,-81 707,-117"/>
<text text-anchor="middle" x="526.5" y="-95.3" font-family="sans-serif" font-size="14.00">google_compute_global_address.private_ip_range</text>
</g>
<!-- google_compute_network.private_network -->
<g id="node6" class="node">
<title>google_compute_network.private_network</title>
<polygon fill="none" stroke="black" points="310,-90 0,-90 0,-54 310,-54 310,-90"/>
<text text-anchor="middle" x="155" y="-68.3" font-family="sans-serif" font-size="14.00">google_compute_network.private_network</text>
</g>
<!-- google_compute_global_address.private_ip_range&#45;&gt;google_compute_network.private_network -->
<g id="edge3" class="edge">
<title>google_compute_global_address.private_ip_range&#45;&gt;google_compute_network.private_network</title>
<path fill="none" stroke="black" d="M345.89,-85.88C337.31,-85.25 328.71,-84.62 320.17,-84"/>
<polygon fill="black" stroke="black" points="320.41,-80.5 310.18,-83.27 319.9,-87.49 320.41,-80.5"/>
</g>
<!-- google_project_service.artifact_registry -->
<g id="node7" class="node">
<title>google_project_service.artifact_registry</title>
<polygon fill="none" stroke="black" points="1929.5,-252 1642.5,-252 1642.5,-216 1929.5,-216 1929.5,-252"/>
<text text-anchor="middle" x="1786" y="-230.3" font-family="sans-serif" font-size="14.00">google_project_service.artifact_registry</text>
</g>
<!-- google_project_service.cloud_build -->
<g id="node8" class="node">
<title>google_project_service.cloud_build</title>
<polygon fill="none" stroke="black" points="1914.5,-306 1657.5,-306 1657.5,-270 1914.5,-270 1914.5,-306"/>
<text text-anchor="middle" x="1786" y="-284.3" font-family="sans-serif" font-size="14.00">google_project_service.cloud_build</text>
</g>
<!-- google_project_service.service_usage -->
<g id="node9" class="node">
<title>google_project_service.service_usage</title>
<polygon fill="none" stroke="black" points="1924,-360 1648,-360 1648,-324 1924,-324 1924,-360"/>
<text text-anchor="middle" x="1786" y="-338.3" font-family="sans-serif" font-size="14.00">google_project_service.service_usage</text>
</g>
<!-- google_service_networking_connection.private_vpc_connection -->
<g id="node10" class="node">
<title>google_service_networking_connection.private_vpc_connection</title>
<polygon fill="none" stroke="black" points="1197,-117 743,-117 743,-81 1197,-81 1197,-117"/>
<text text-anchor="middle" x="970" y="-95.3" font-family="sans-serif" font-size="14.00">google_service_networking_connection.private_vpc_connection</text>
</g>
<!-- google_service_networking_connection.private_vpc_connection&#45;&gt;google_compute_global_address.private_ip_range -->
<g id="edge4" class="edge">
<title>google_service_networking_connection.private_vpc_connection&#45;&gt;google_compute_global_address.private_ip_range</title>
<path fill="none" stroke="black" d="M742.75,-99C734.24,-99 725.74,-99 717.3,-99"/>
<polygon fill="black" stroke="black" points="717.04,-95.5 707.04,-99 717.04,-102.5 717.04,-95.5"/>
</g>
<!-- google_sql_database.wordpress_database -->
<g id="node11" class="node">
<title>google_sql_database.wordpress_database</title>
<polygon fill="none" stroke="black" points="1939.5,-144 1632.5,-144 1632.5,-108 1939.5,-108 1939.5,-144"/>
<text text-anchor="middle" x="1786" y="-122.3" font-family="sans-serif" font-size="14.00">google_sql_database.wordpress_database</text>
</g>
<!-- google_sql_database_instance.mysql_instance -->
<g id="node12" class="node">
<title>google_sql_database_instance.mysql_instance</title>
<polygon fill="none" stroke="black" points="1575,-117 1237,-117 1237,-81 1575,-81 1575,-117"/>
<text text-anchor="middle" x="1406" y="-95.3" font-family="sans-serif" font-size="14.00">google_sql_database_instance.mysql_instance</text>
</g>
<!-- google_sql_database.wordpress_database&#45;&gt;google_sql_database_instance.mysql_instance -->
<g id="edge5" class="edge">
<title>google_sql_database.wordpress_database&#45;&gt;google_sql_database_instance.mysql_instance</title>
<path fill="none" stroke="black" d="M1632.34,-115.1C1616.88,-113.99 1601.08,-112.86 1585.38,-111.74"/>
<polygon fill="black" stroke="black" points="1585.3,-108.23 1575.08,-111.01 1584.8,-115.21 1585.3,-108.23"/>
</g>
<!-- google_sql_database_instance.mysql_instance&#45;&gt;google_service_networking_connection.private_vpc_connection -->
<g id="edge6" class="edge">
<title>google_sql_database_instance.mysql_instance&#45;&gt;google_service_networking_connection.private_vpc_connection</title>
<path fill="none" stroke="black" d="M1236.89,-99C1227.06,-99 1217.08,-99 1207.05,-99"/>
<polygon fill="black" stroke="black" points="1207.01,-95.5 1197.01,-99 1207.01,-102.5 1207.01,-95.5"/>
</g>
<!-- google_sql_user.wordpress_user -->
<g id="node13" class="node">
<title>google_sql_user.wordpress_user</title>
<polygon fill="none" stroke="black" points="1905.5,-90 1666.5,-90 1666.5,-54 1905.5,-54 1905.5,-90"/>
<text text-anchor="middle" x="1786" y="-68.3" font-family="sans-serif" font-size="14.00">google_sql_user.wordpress_user</text>
</g>
<!-- google_sql_user.wordpress_user&#45;&gt;google_sql_database_instance.mysql_instance -->
<g id="edge7" class="edge">
<title>google_sql_user.wordpress_user&#45;&gt;google_sql_database_instance.mysql_instance</title>
<path fill="none" stroke="black" d="M1666.44,-80.47C1640.69,-82.31 1612.91,-84.29 1585.44,-86.25"/>
<polygon fill="black" stroke="black" points="1585.06,-82.77 1575.33,-86.98 1585.55,-89.75 1585.06,-82.77"/>
</g>
<!-- google_vpc_access_connector.vpc_connector&#45;&gt;google_compute_network.private_network -->
<g id="edge8" class="edge">
<title>google_vpc_access_connector.vpc_connector&#45;&gt;google_compute_network.private_network</title>
<path fill="none" stroke="black" d="M362.89,-56.88C348.79,-57.91 334.52,-58.96 320.41,-59.99"/>
<polygon fill="black" stroke="black" points="319.88,-56.52 310.16,-60.74 320.39,-63.5 319.88,-56.52"/>
</g>
</g>
</svg>
